<svg xmlns="http://www.w3.org/2000/svg" viewBox="0 0 512 512">
  <defs>
    <linearGradient id="grad1" x1="0%" y1="0%" x2="100%" y2="0%">
      <stop offset="0%" style="stop-color:#0077b6;stop-opacity:1" />
      <stop offset="50%" style="stop-color:#00b7ff;stop-opacity:1" />
      <stop offset="100%" style="stop-color:#0077b6;stop-opacity:1" />
    </linearGradient>
  </defs>
  
  <g fill="url(#grad1)">
    <path d="M256 8C119 8 8 119 8 256s111 248 248 248 248-111 248-248S393 8 256 8zm216 248c0 118.7-96.1 216-216 216-118.7 0-216-96.1-216-216 0-118.7 96.1-216 216-216 118.7 0 216 96.1 216 216z"/>
    <path d="M351.2 217L263.9 173c-11.7-5.2-26.9-.9-32.1 10.8-5.2 11.7-.9 26.9 10.8 32.1l56.4 25.2c4.4 2 6.8 5.1 6.9 9.4.1 4.3-2.2 7.8-6.5 10.4L208.1 299.4c-12.4 7.8-16.8 23.5-9 35.9 7.8 12.4 23.5 16.8 35.9 9l93.4-58.8c31.9-20.1 49.6-55.5 49.6-93 .1-32-13.5-62.4-37.8-82.5z"/>
  </g>
</svg>